<svg width="1133" height="388" viewBox="0 0 1133 388" fill="none" xmlns="http://www.w3.org/2000/svg">
<path d="M570.159 116.34H475.188C463.334 116.34 454.076 125.597 454.076 137.452V271.251C454.076 283.106 463.334 292.363 475.188 292.363C487.043 292.363 496.3 283.106 496.3 271.251V225.231H559.304C570.159 225.231 578.684 216.706 578.684 205.85C578.684 194.994 570.159 186.47 559.304 186.47H496.3V155.234H570.226C580.948 155.234 589.606 146.51 589.606 135.854C589.606 125.198 580.882 116.34 570.159 116.34Z" fill="#009FFF"/>
<path d="M645.217 114.942C633.362 114.942 624.104 124.199 624.104 136.054V269.852C624.104 281.707 633.362 290.964 645.217 290.964H732.928C743.784 290.964 752.309 282.44 752.309 271.584C752.309 260.728 743.784 252.203 732.928 252.203H666.329V136.054C666.329 124.199 657.071 114.942 645.217 114.942Z" fill="#009FFF"/>
<path d="M855.672 113.476C803.591 113.476 762.832 153.103 762.832 203.652V204.118C762.832 255.267 802.525 293.828 855.206 293.828C907.287 293.828 948.046 254.201 948.046 203.652V203.186C948.046 152.038 908.352 113.476 855.672 113.476ZM904.156 204.118C904.156 232.823 883.311 254.534 855.672 254.534C827.767 254.534 806.721 232.69 806.721 203.652V203.186C806.721 174.482 827.567 152.77 855.206 152.77C883.111 152.77 904.156 174.615 904.156 203.652V204.118Z" fill="#009FFF"/>
<path d="M1036.16 293.961C1055.67 293.961 1072.99 287.768 1086.31 275.979L1089.3 273.382L1090.24 277.245C1092.37 285.969 1101.09 292.097 1111.35 292.097C1123.47 292.097 1132.99 282.706 1132.99 270.785V186.07C1132.99 162.161 1126.53 143.779 1113.81 131.325L1113.75 131.258C1101.02 118.205 1080.71 111.279 1055 111.279C1034.49 111.279 1017.71 114.342 998.728 121.535C991.535 124.332 986.473 131.725 986.473 139.45C986.473 149.773 994.998 158.165 1005.52 158.165C1007.65 158.165 1009.78 157.832 1012.31 157.099L1012.65 156.966C1024.04 152.504 1036.16 150.306 1049.81 150.306C1062.4 150.306 1072.19 153.037 1078.91 158.431C1085.77 163.959 1089.5 172.151 1089.97 182.94L1090.1 186.27L1086.91 185.404C1078.65 183.073 1065.39 180.009 1046.21 180.009C1023.5 180.009 1004.72 185.337 992.001 195.46C979.414 205.45 972.82 220.102 972.82 237.818V238.484C972.82 271.118 998.861 293.961 1036.16 293.961ZM1016.11 236.219C1016.11 226.03 1021.37 218.371 1031.29 214.042C1039.02 210.712 1047.94 209.979 1054.01 209.979C1069.66 209.979 1081.64 212.976 1089.04 215.507L1090.64 216.04V226.096C1090.64 246.01 1072.32 260.462 1047.15 260.462C1039.29 260.462 1031.96 258.664 1026.57 255.4C1019.64 251.204 1016.04 244.811 1016.04 236.885V236.219H1016.11Z" fill="#009FFF"/>
<path d="M373.824 14.3761C359.372 -0.0759746 338.726 -3.93875 319.878 4.1864C294.304 15.2419 280.784 40.017 270.861 62.7941L232.366 155.834L325.206 117.472L325.406 117.406C348.183 107.482 372.958 93.9627 384.013 68.3884C392.139 49.5407 388.276 28.8283 373.824 14.3761ZM361.969 58.7981C357.64 68.8546 348.716 81.0424 315.882 95.2947L276.588 111.545L292.839 72.2512C300.897 53.8031 311.486 33.8898 329.335 26.1643C339.125 21.9019 349.382 23.8333 356.841 31.2924C364.3 38.7516 366.231 49.0745 361.969 58.7981ZM320.211 164.958C293.305 154.302 265.066 162.56 240.957 172.084L215.916 182.474C212.986 178.544 209.522 175.081 205.66 172.217L215.983 147.376L216.049 147.176C225.506 123.067 233.831 94.8285 223.175 67.9222C215.383 48.1422 197.335 35.8878 176.223 35.8878C155.111 35.8878 137.062 48.1422 129.27 67.9222C126.739 74.3824 125.274 80.9092 124.608 87.4359C119.546 83.2401 113.885 79.6438 107.558 76.9132C88.0447 68.455 66.6662 72.5176 51.6813 87.4359C36.763 102.354 32.7004 123.799 41.1586 143.313C43.8892 149.707 47.4855 155.301 51.6813 160.363C45.1545 160.962 38.6278 162.427 32.1676 165.024C12.3209 172.75 0 190.732 0 211.911C0 233.089 12.2543 251.071 32.0344 258.863C38.4946 261.394 45.0213 262.859 51.5481 263.525C47.3523 268.587 43.7559 274.248 41.0254 280.575C32.5672 300.089 36.6298 321.467 51.5481 336.452C61.3382 346.242 73.859 351.304 86.8459 351.304C93.7057 351.304 100.699 349.905 107.425 346.975C113.819 344.244 119.413 340.648 124.475 336.452C125.074 342.979 126.539 349.505 129.137 355.966C136.929 375.746 154.977 388 176.089 388C197.201 388 215.25 375.746 223.042 355.966C225.573 349.505 227.038 342.979 227.704 336.452C232.766 340.648 238.427 344.244 244.754 346.975C251.48 349.905 258.473 351.304 265.333 351.304C278.32 351.304 290.841 346.175 300.631 336.452C315.549 321.534 319.612 300.089 311.153 280.575C308.423 274.181 304.826 268.587 300.631 263.525C307.157 262.926 313.684 261.461 320.144 258.863C339.924 251.071 352.179 233.023 352.179 211.911C352.179 190.799 339.991 172.75 320.211 164.958ZM40.8922 236.552C30.3028 232.357 23.9759 223.166 23.9759 211.911C23.9759 200.655 30.3028 191.465 40.8922 187.269C45.5541 185.404 51.1485 183.939 58.8075 183.939C68.6642 183.939 81.9175 186.403 101.098 193.862C101.431 193.995 101.831 194.195 102.164 194.328L127.205 204.718C126.872 207.115 126.672 209.513 126.672 211.977C126.672 214.441 126.872 216.906 127.205 219.237L102.364 229.493L102.164 229.56C101.764 229.759 101.365 229.893 100.898 230.092C81.5845 237.551 59.5401 243.945 40.8922 236.552ZM136.396 276.512L136.329 276.712C136.196 277.112 135.996 277.511 135.863 277.977C127.472 296.958 116.416 317.005 98.0346 324.997C87.5785 329.526 76.5896 327.461 68.6642 319.536C60.7389 311.61 58.6743 300.621 63.203 290.165C67.7318 279.709 76.9226 267.055 110.356 252.27C110.689 252.137 111.088 252.004 111.421 251.87L136.463 241.481C139.393 245.41 142.856 248.873 146.719 251.737L136.396 276.512ZM136.396 182.407L111.554 172.084L111.355 172.017C110.955 171.884 110.489 171.684 110.089 171.551C91.1083 163.16 71.0618 152.104 63.0698 133.723C58.5411 123.267 60.6057 112.278 68.531 104.352C76.4564 96.4269 87.4453 94.3623 97.9014 98.8911C108.358 103.42 121.012 112.611 135.797 146.044C135.93 146.443 136.063 146.776 136.263 147.176L146.652 172.217C142.79 175.081 139.326 178.544 136.396 182.407ZM200.798 347.108C196.602 357.697 187.411 364.024 176.156 364.024C164.901 364.024 155.71 357.697 151.514 347.108C147.318 336.518 144.854 321.067 158.041 286.968C158.174 286.569 158.374 286.236 158.507 285.836L168.897 260.795C171.294 261.128 173.692 261.328 176.156 261.328C178.62 261.328 181.084 261.128 183.415 260.795L193.672 285.636L193.738 285.836C193.938 286.236 194.071 286.635 194.271 287.102C201.797 306.482 208.19 328.46 200.798 347.108ZM150.648 211.911C150.648 197.858 162.103 186.403 176.156 186.403C190.209 186.403 201.664 197.858 201.664 211.911C201.664 225.963 190.209 237.418 176.156 237.418C162.103 237.418 150.648 225.963 150.648 211.911ZM193.738 138.185L183.482 162.96C181.084 162.627 178.62 162.427 176.156 162.427C173.692 162.427 171.228 162.627 168.897 162.96L158.574 138.118L158.507 137.918C158.307 137.519 158.174 137.119 157.974 136.653C150.449 117.339 144.122 95.2947 151.514 76.6468C155.71 66.0574 164.901 59.7305 176.156 59.7305C187.411 59.7305 196.602 66.0574 200.798 76.6468C205.06 87.3693 207.524 103.087 193.738 138.185ZM283.714 319.469C275.789 327.394 264.8 329.459 254.344 324.93C243.888 320.401 231.234 311.211 216.449 277.778C216.316 277.378 216.182 277.045 215.983 276.645L205.593 251.604C209.522 248.674 212.986 245.21 215.849 241.348L240.691 251.671L240.891 251.737C241.29 251.87 241.69 252.07 242.09 252.203C261.07 260.595 281.184 271.65 289.109 290.099C293.704 300.488 291.706 311.477 283.714 319.469ZM311.353 236.552C300.764 240.748 285.313 243.212 251.214 230.026C250.881 229.893 250.481 229.693 250.148 229.56L225.107 219.17C225.44 216.772 225.639 214.375 225.639 211.911C225.639 209.446 225.44 206.982 225.107 204.585L249.882 194.328C269.595 186.603 292.306 179.676 311.42 187.269C322.009 191.465 328.336 200.655 328.336 211.911C328.336 223.166 321.943 232.357 311.353 236.552Z" fill="#009FFF"/>
</svg>
